<?xml version="1.0" encoding="UTF-8" standalone="no"?>
<svg
   viewBox="0 0 124.16728 124.34352"
   version="1.1"
   id="svg95"
   sodipodi:docname="osm_icon_125x125.svg"
   inkscape:version="1.1.2 (0a00cf5339, 2022-02-04)"
   width="124.16727"
   height="124.34352"
   xmlns:inkscape="http://www.inkscape.org/namespaces/inkscape"
   xmlns:sodipodi="http://sodipodi.sourceforge.net/DTD/sodipodi-0.dtd"
   xmlns="http://www.w3.org/2000/svg"
   xmlns:svg="http://www.w3.org/2000/svg">
  <defs
     id="defs99">
    <rect
       x="349.01489"
       y="127.23799"
       width="16.24243"
       height="118.76258"
       id="rect28399" />
  </defs>
  <sodipodi:namedview
     id="namedview97"
     pagecolor="#ffffff"
     bordercolor="#666666"
     borderopacity="1.0"
     inkscape:pageshadow="2"
     inkscape:pageopacity="0.0"
     inkscape:pagecheckerboard="0"
     showgrid="false"
     inkscape:zoom="3.093809"
     inkscape:cx="12.282594"
     inkscape:cy="45.251662"
     inkscape:window-width="2048"
     inkscape:window-height="1083"
     inkscape:window-x="0"
     inkscape:window-y="32"
     inkscape:window-maximized="1"
     inkscape:current-layer="svg95" />
  <g
     stroke="#000000"
     stroke-linecap="round"
     stroke-linejoin="round"
     stroke-width="4"
     id="g85"
     transform="matrix(0.20934938,0,0,0.64263873,0.0015072,0.00616762)">
    <g
       fill="#ffffff"
       id="g81"
       transform="translate(-0.0169,-0.0086)">
      <path
         d="m 591.12,122.74 -0.2003,40.204 -382.56,28.544 -206.35,-129.56 0.2002,-40.204 206.35,126.03 382.56,-25.009 z"
         id="path71" />
      <path
         d="m 2.2002,21.726 332.67,-19.727 256.24,120.74 -382.56,25.009 -206.35,-126.03 z"
         id="path73" />
      <path
         d="m 591.12,122.74 -0.2003,40.204 -382.56,28.544 0.2003,-43.739 z"
         id="path75" />
      <path
         d="m 60.004,34.138 27.499,15.5 243.38,-17.784 149.71,72.081 26.288,-1.7184 -175.61,-87.326 -271.26,19.248 z"
         id="path77" />
      <path
         d="m 330.88,31.854 149.71,72.081 26.288,-1.7184 -175.61,-87.326 -0.3911,16.964 z"
         id="path79" />
    </g>
    <path
       d="m 330.86,31.846 c -22.368,1.6431 -44.646,-7.563 -67.742,-3.7348 -23.095,3.8282 -29.308,10.835 -57.246,12.877 -28.435,2.0778 -73.178,-12.004 -118.36,8.6394 l 128.41,72.406 290.94,-19.812 -26.281,1.7188 c 0,0 -72.013,-50.61 -97.425,-55.024 -25.202,-4.3773 -52.293,-17.07 -52.293,-17.07 z"
       fill="#7f7f7f"
       id="path83" />
    <text
       xml:space="preserve"
       style="font-style:normal;font-weight:normal;font-size:40px;line-height:1.25;font-family:sans-serif;fill:#000000;fill-opacity:1;stroke:none"
       x="274.84274"
       y="185.40096"
       id="text11513"><tspan
         sodipodi:role="line"
         id="tspan11511"
         x="274.84274"
         y="185.40096" /></text>
    <text
       xml:space="preserve"
       style="font-style:normal;font-variant:normal;font-weight:bold;font-stretch:normal;font-size:39.3548px;line-height:1.25;font-family:'Roboto Slab';-inkscape-font-specification:'Roboto Slab, Bold';font-variant-ligatures:normal;font-variant-caps:normal;font-variant-numeric:normal;font-variant-east-asian:normal;fill:#000000;fill-opacity:1;stroke:none;stroke-width:3.93548"
       x="350.16876"
       y="189.91568"
       id="text23283"
       transform="matrix(0.9528075,-0.0666499,0.05744058,1.0455119,0,0)"><tspan
         sodipodi:role="line"
         id="tspan23281"
         x="350.16876"
         y="189.91568"
         style="stroke-width:3.93548">OSM</tspan></text>
    <text
       xml:space="preserve"
       id="text28397"
       style="font-style:normal;font-weight:normal;font-size:40px;line-height:1.25;font-family:sans-serif;white-space:pre;shape-inside:url(#rect28399);fill:#000000;fill-opacity:1;stroke:none" />
  </g>
  <g
     fill="#3f3f3f"
     fill-rule="evenodd"
     id="g93"
     transform="matrix(0.20934938,0,0,0.64263873,0.0015072,0.00616762)">
    <path
       d="m 283.35,70.629 c 8.25,3.5 35,-6.5 48,-6.5 13,0 21,-10 8,-15.5 -13,-5.5 -36,-7 -45.5,2.5 -9.5,9.5 -18.75,16 -10.5,19.5 z"
       id="path87" />
    <path
       d="M 222.98,73.109 C 202.047,76.5279 197.82,91.766 186.347,89.824 174.874,87.8819 157.19,75.388 166.161,71.21 c 8.9713,-4.1787 30.99,3.4449 43.362,-7.5977 12.371,-11.043 34.39,6.0782 13.457,9.4971 z"
       id="path89" />
    <path
       d="m 401.4,75.877 c -11.616,0.07458 -22.188,1.5938 -26.781,5.75 -10.5,9.5 -19,24 -40,22.5 -21,-1.5 -44.5,-10 -44,5 0.0952,2.8579 2.8508,5.1881 7.2812,7.0625 l 113.47,-7.75 c 24.469,-7.004 50.531,-14.576 47.875,-16.281 -0.0456,-0.0293 -0.0803,-0.06409 -0.125,-0.09375 -0.0113,-0.0075 -0.0199,-0.02368 -0.0312,-0.03125 -5.3304,-3.5364 -11.596,-7.6042 -18.219,-11.781 -0.009,-0.0024 -0.0225,0.0024 -0.0312,0 -7.8766,-2.1697 -24.519,-4.4708 -39.438,-4.375 z"
       id="path91" />
  </g>
</svg>
